<svg width="1176" height="155" viewBox="0 0 1176 155" fill="none" xmlns="http://www.w3.org/2000/svg">
<path d="M0 142.188H30.957L67.0898 48.0469C67.6107 46.5495 68.1641 45.0521 68.75 43.5547C69.3359 41.9922 69.8568 40.7878 70.3125 39.9414H70.4102C70.8659 40.7878 71.3867 41.9271 71.9727 43.3594C72.5586 44.7917 73.1445 46.2891 73.7305 47.8516L111.035 142.188H143.457L88.4766 9.96094H54.8828L0 142.188ZM26.5625 113.867H114.941L107.324 91.2109H34.1797L26.5625 113.867ZM151.469 142.188H182.621V9.96094H151.469V142.188ZM179.988 154.395H211.336L278.523 0H247.078L179.988 154.395ZM278.918 142.188H308.117L308.02 58.5938C308.02 56.8359 307.889 54.9479 307.629 52.9297C307.434 50.9115 307.336 49.3164 307.336 48.1445H308.215C308.54 49.3164 309.029 50.9115 309.68 52.9297C310.396 54.8828 311.079 56.7383 311.73 58.4961L349.719 142.188H375.598L414.855 58.2031C415.507 56.5755 416.125 54.9154 416.711 53.2227C417.362 51.4648 417.915 49.7396 418.371 48.0469H419.25C419.185 49.6745 419.055 51.3672 418.859 53.125C418.729 54.8828 418.664 56.6081 418.664 58.3008L418.469 142.188H449.035V9.96094H406.75L366.711 91.5039C365.865 93.457 365.148 95.1497 364.562 96.582C364.042 97.9492 363.553 99.4466 363.098 101.074H362.805C362.349 99.4466 361.828 97.9167 361.242 96.4844C360.656 95.0521 359.973 93.3919 359.191 91.5039L320.91 9.96094H278.918V142.188ZM472.281 142.188H568.668V115.625H503.141V9.96094H472.281V142.188ZM625.121 142.188H654.32L654.223 58.5938C654.223 56.8359 654.092 54.9479 653.832 52.9297C653.637 50.9115 653.539 49.3164 653.539 48.1445H654.418C654.743 49.3164 655.232 50.9115 655.883 52.9297C656.599 54.8828 657.283 56.7383 657.934 58.4961L695.922 142.188H721.801L761.059 58.2031C761.71 56.5755 762.328 54.9154 762.914 53.2227C763.565 51.4648 764.118 49.7396 764.574 48.0469H765.453C765.388 49.6745 765.258 51.3672 765.062 53.125C764.932 54.8828 764.867 56.6081 764.867 58.3008L764.672 142.188H795.238V9.96094H752.953L712.914 91.5039C712.068 93.457 711.352 95.1497 710.766 96.582C710.245 97.9492 709.757 99.4466 709.301 101.074H709.008C708.552 99.4466 708.031 97.9167 707.445 96.4844C706.859 95.0521 706.176 93.3919 705.395 91.5039L667.113 9.96094H625.121V142.188ZM818.875 142.188H850.027V9.96094H818.875V142.188ZM865.559 104.492C866.014 117.773 871.776 127.734 882.844 134.375C893.911 141.016 909.178 144.336 928.645 144.336C948.046 144.336 963.02 140.853 973.566 133.887C984.178 126.855 989.484 116.797 989.484 103.711C989.484 92.0573 985.48 83.1055 977.473 76.8555C969.53 70.6055 956.249 65.5273 937.629 61.6211C921.678 58.4961 911.132 55.6966 905.988 53.2227C900.845 50.7487 898.273 47.6888 898.273 44.043C898.273 40.332 900.292 37.3372 904.328 35.0586C908.43 32.7799 915.689 31.6406 926.105 31.6406C937.043 31.6406 944.823 33.138 949.445 36.1328C954.068 39.1276 956.574 43.1641 956.965 48.2422L957.16 51.7578H985.48L985.383 46.582C984.797 33.8216 979.393 24.1862 969.172 17.6758C958.951 11.1003 944.465 7.8125 925.715 7.8125C907.03 7.8125 892.74 11.1979 882.844 17.9688C872.948 24.6745 868 34.375 868 47.0703C868 57.4219 872.102 65.8854 880.305 72.4609C888.508 79.0365 901.887 84.2773 920.441 88.1836C936.978 91.5039 947.59 94.3034 952.277 96.582C957.03 98.7956 959.341 102.051 959.211 106.348C959.211 110.645 956.802 114.193 951.984 116.992C947.232 119.727 939.289 121.094 928.156 121.094C916.958 121.094 908.625 119.629 903.156 116.699C897.688 113.704 894.725 108.952 894.27 102.441L894.074 97.3633H865.363L865.559 104.492ZM1004.62 142.188H1035.78V9.96094H1004.62V142.188ZM1051.31 104.492C1051.76 117.773 1057.53 127.734 1068.59 134.375C1079.66 141.016 1094.93 144.336 1114.39 144.336C1133.8 144.336 1148.77 140.853 1159.32 133.887C1169.93 126.855 1175.23 116.797 1175.23 103.711C1175.23 92.0573 1171.23 83.1055 1163.22 76.8555C1155.28 70.6055 1142 65.5273 1123.38 61.6211C1107.43 58.4961 1096.88 55.6966 1091.74 53.2227C1086.6 50.7487 1084.02 47.6888 1084.02 44.043C1084.02 40.332 1086.04 37.3372 1090.08 35.0586C1094.18 32.7799 1101.44 31.6406 1111.86 31.6406C1122.79 31.6406 1130.57 33.138 1135.2 36.1328C1139.82 39.1276 1142.32 43.1641 1142.71 48.2422L1142.91 51.7578H1171.23L1171.13 46.582C1170.55 33.8216 1165.14 24.1862 1154.92 17.6758C1144.7 11.1003 1130.21 7.8125 1111.46 7.8125C1092.78 7.8125 1078.49 11.1979 1068.59 17.9688C1058.7 24.6745 1053.75 34.375 1053.75 47.0703C1053.75 57.4219 1057.85 65.8854 1066.05 72.4609C1074.26 79.0365 1087.64 84.2773 1106.19 88.1836C1122.73 91.5039 1133.34 94.3034 1138.03 96.582C1142.78 98.7956 1145.09 102.051 1144.96 106.348C1144.96 110.645 1142.55 114.193 1137.73 116.992C1132.98 119.727 1125.04 121.094 1113.91 121.094C1102.71 121.094 1094.38 119.629 1088.91 116.699C1083.44 113.704 1080.48 108.952 1080.02 102.441L1079.82 97.3633H1051.11L1051.31 104.492Z" fill="white"/>
</svg>
